<svg width="733" height="400" viewBox="0 0 733 400" fill="none" xmlns="http://www.w3.org/2000/svg">
<path d="M176.562 273.438C183.333 280.208 191.146 283.594 200 283.594C208.854 283.594 216.667 280.208 223.438 273.438C230.208 266.667 233.594 258.854 233.594 250C233.594 241.146 230.208 233.333 223.438 226.562C216.667 219.792 208.854 216.406 200 216.406C191.146 216.406 183.333 219.792 176.562 226.562C169.792 233.333 166.406 241.146 166.406 250C166.406 258.854 169.792 266.667 176.562 273.438ZM150 150H250L200 76.5625L150 150ZM286.719 150H366.406C371.094 150 375 151.562 378.125 154.688C381.771 157.812 383.594 161.719 383.594 166.406C378.385 187.24 370.573 216.667 360.156 254.688C349.74 292.188 343.229 315.885 340.625 325.781C335.938 341.927 325.26 350 308.594 350H91.4062C74.7396 350 64.0625 341.927 59.375 325.781L17.1875 171.094C16.6667 170.052 16.4062 168.49 16.4062 166.406C16.4062 161.719 17.9688 157.812 21.0938 154.688C24.7396 151.562 28.9062 150 33.5938 150H113.281L185.938 40.625C189.062 35.9375 193.75 33.5938 200 33.5938C206.771 33.5938 211.458 35.9375 214.062 40.625L286.719 150Z" fill="#70454E"/>
<path d="M404.829 192.8C404.829 187.856 405.909 183.44 408.069 179.552C410.229 175.616 413.181 172.568 416.925 170.408C420.669 168.2 424.845 167.096 429.453 167.096C435.069 167.096 439.869 168.44 443.853 171.128C447.885 173.768 450.813 177.512 452.637 182.36H446.733C445.293 178.952 443.085 176.288 440.109 174.368C437.181 172.448 433.629 171.488 429.453 171.488C425.757 171.488 422.421 172.352 419.445 174.08C416.517 175.808 414.213 178.304 412.533 181.568C410.853 184.784 410.013 188.528 410.013 192.8C410.013 197.072 410.853 200.816 412.533 204.032C414.213 207.248 416.517 209.72 419.445 211.448C422.421 213.176 425.757 214.04 429.453 214.04C433.629 214.04 437.181 213.104 440.109 211.232C443.085 209.312 445.293 206.672 446.733 203.312H452.637C450.813 208.112 447.885 211.832 443.853 214.472C439.821 217.112 435.021 218.432 429.453 218.432C424.845 218.432 420.669 217.352 416.925 215.192C413.181 212.984 410.229 209.936 408.069 206.048C405.909 202.16 404.829 197.744 404.829 192.8ZM477.8 171.776V190.568H496.88V194.744H477.8V213.824H499.04V218H472.76V167.6H499.04V171.776H477.8ZM534.315 218.504C531.003 218.504 528.075 217.928 525.531 216.776C523.035 215.624 521.067 214.016 519.627 211.952C518.187 209.888 517.419 207.584 517.323 205.04H522.651C522.891 207.488 523.971 209.648 525.891 211.52C527.811 213.344 530.619 214.256 534.315 214.256C537.723 214.256 540.411 213.392 542.379 211.664C544.395 209.888 545.403 207.656 545.403 204.968C545.403 202.808 544.851 201.08 543.747 199.784C542.643 198.44 541.275 197.456 539.643 196.832C538.011 196.16 535.755 195.44 532.875 194.672C529.515 193.76 526.851 192.872 524.883 192.008C522.915 191.144 521.235 189.8 519.843 187.976C518.451 186.152 517.755 183.68 517.755 180.56C517.755 177.968 518.427 175.664 519.771 173.648C521.115 171.584 523.011 169.976 525.459 168.824C527.907 167.672 530.715 167.096 533.883 167.096C538.539 167.096 542.283 168.248 545.115 170.552C547.995 172.808 549.651 175.736 550.083 179.336H544.611C544.275 177.272 543.147 175.448 541.227 173.864C539.307 172.232 536.715 171.416 533.451 171.416C530.427 171.416 527.907 172.232 525.891 173.864C523.875 175.448 522.867 177.632 522.867 180.416C522.867 182.528 523.419 184.232 524.523 185.528C525.627 186.824 526.995 187.808 528.627 188.48C530.307 189.152 532.563 189.872 535.395 190.64C538.659 191.552 541.299 192.464 543.315 193.376C545.331 194.24 547.035 195.584 548.427 197.408C549.819 199.232 550.515 201.68 550.515 204.752C550.515 207.104 549.891 209.336 548.643 211.448C547.395 213.56 545.547 215.264 543.099 216.56C540.651 217.856 537.723 218.504 534.315 218.504ZM599.782 167.672V171.848H585.814V218H580.774V171.848H566.734V167.672H599.782ZM646.98 206.048H624.084L619.692 218H614.364L632.724 168.32H638.412L656.7 218H651.372L646.98 206.048ZM645.468 201.872L635.532 174.656L625.596 201.872H645.468ZM690.133 218.504C686.821 218.504 683.893 217.928 681.349 216.776C678.853 215.624 676.885 214.016 675.445 211.952C674.005 209.888 673.237 207.584 673.141 205.04H678.469C678.709 207.488 679.789 209.648 681.709 211.52C683.629 213.344 686.437 214.256 690.133 214.256C693.541 214.256 696.229 213.392 698.197 211.664C700.213 209.888 701.221 207.656 701.221 204.968C701.221 202.808 700.669 201.08 699.565 199.784C698.461 198.44 697.093 197.456 695.461 196.832C693.829 196.16 691.573 195.44 688.693 194.672C685.333 193.76 682.669 192.872 680.701 192.008C678.733 191.144 677.053 189.8 675.661 187.976C674.269 186.152 673.573 183.68 673.573 180.56C673.573 177.968 674.245 175.664 675.589 173.648C676.933 171.584 678.829 169.976 681.277 168.824C683.725 167.672 686.533 167.096 689.701 167.096C694.357 167.096 698.101 168.248 700.933 170.552C703.813 172.808 705.469 175.736 705.901 179.336H700.429C700.093 177.272 698.965 175.448 697.045 173.864C695.125 172.232 692.533 171.416 689.269 171.416C686.245 171.416 683.725 172.232 681.709 173.864C679.693 175.448 678.685 177.632 678.685 180.416C678.685 182.528 679.237 184.232 680.341 185.528C681.445 186.824 682.813 187.808 684.445 188.48C686.125 189.152 688.381 189.872 691.213 190.64C694.477 191.552 697.117 192.464 699.133 193.376C701.149 194.24 702.853 195.584 704.245 197.408C705.637 199.232 706.333 201.68 706.333 204.752C706.333 207.104 705.709 209.336 704.461 211.448C703.213 213.56 701.365 215.264 698.917 216.56C696.469 217.856 693.541 218.504 690.133 218.504ZM437.469 275.024C442.797 275.024 447.453 276.104 451.437 278.264C455.469 280.424 458.565 283.424 460.725 287.264C462.885 291.104 463.965 295.472 463.965 300.368C463.965 305.216 462.885 309.584 460.725 313.472C458.565 317.36 455.469 320.432 451.437 322.688C447.453 324.896 442.797 326 437.469 326H416.229V275.024H437.469ZM436.029 311.744C439.629 311.744 442.485 310.76 444.597 308.792C446.709 306.824 447.765 304.016 447.765 300.368C447.765 296.72 446.709 293.912 444.597 291.944C442.485 289.976 439.629 288.992 436.029 288.992H432.213V311.744H436.029ZM502.425 318.296H485.433L482.913 326H466.137L484.785 275.024H503.217L521.793 326H504.945L502.425 318.296ZM498.537 306.272L493.929 292.088L489.321 306.272H498.537ZM536.219 300.44C536.219 295.4 537.227 290.912 539.243 286.976C541.307 283.04 544.235 279.992 548.027 277.832C551.819 275.624 556.283 274.52 561.419 274.52C565.835 274.52 569.771 275.36 573.227 277.04C576.731 278.672 579.563 281 581.723 284.024C583.931 287.048 585.395 290.576 586.115 294.608H569.267C568.499 292.928 567.395 291.632 565.955 290.72C564.563 289.76 562.955 289.28 561.131 289.28C558.443 289.28 556.307 290.288 554.723 292.304C553.187 294.32 552.419 297.032 552.419 300.44C552.419 303.848 553.187 306.56 554.723 308.576C556.307 310.592 558.443 311.6 561.131 311.6C562.955 311.6 564.563 311.144 565.955 310.232C567.395 309.272 568.499 307.952 569.267 306.272H586.115C585.395 310.304 583.931 313.832 581.723 316.856C579.563 319.88 576.731 322.232 573.227 323.912C569.771 325.544 565.835 326.36 561.419 326.36C556.283 326.36 551.819 325.28 548.027 323.12C544.235 320.912 541.307 317.84 539.243 313.904C537.227 309.968 536.219 305.48 536.219 300.44ZM607.854 275.024V326H591.87V275.024H607.854ZM638.545 311.6C640.369 311.6 641.977 311.144 643.369 310.232C644.809 309.272 645.913 307.952 646.681 306.272H663.529C662.617 311.6 660.409 316.016 656.905 319.52C653.401 323.024 648.961 325.184 643.585 326H643.945V328.448C645.289 328.448 646.681 328.712 648.121 329.24C649.561 329.816 650.785 330.752 651.793 332.048C652.801 333.392 653.305 335.12 653.305 337.232C653.305 340.352 652.225 342.584 650.065 343.928C647.905 345.32 645.385 346.016 642.505 346.016H630.049V337.88H640.849C641.425 337.88 641.881 337.76 642.217 337.52C642.553 337.328 642.721 337.064 642.721 336.728C642.721 336.008 642.097 335.648 640.849 335.648H634.729V326.072C630.409 325.496 626.641 324.056 623.425 321.752C620.257 319.448 617.833 316.472 616.153 312.824C614.473 309.176 613.633 305.048 613.633 300.44C613.633 295.4 614.641 290.912 616.657 286.976C618.721 283.04 621.649 279.992 625.441 277.832C629.233 275.624 633.697 274.52 638.833 274.52C643.249 274.52 647.185 275.36 650.641 277.04C654.145 278.672 656.977 281 659.137 284.024C661.345 287.048 662.809 290.576 663.529 294.608H646.681C645.913 292.928 644.809 291.632 643.369 290.72C641.977 289.76 640.369 289.28 638.545 289.28C635.857 289.28 633.721 290.288 632.137 292.304C630.601 294.32 629.833 297.032 629.833 300.44C629.833 303.848 630.601 306.56 632.137 308.576C633.721 310.592 635.857 311.6 638.545 311.6ZM701.972 318.296H684.98L682.46 326H665.684L684.332 275.024H702.764L721.34 326H704.492L701.972 318.296ZM698.084 306.272L693.476 292.088L688.868 306.272H698.084Z" fill="#70454E"/>
</svg>
